<svg preserveAspectRatio="none" width="100%" height="100%" overflow="visible" style="display: block;" viewBox="0 0 152 24" fill="none" xmlns="http://www.w3.org/2000/svg">
<g id="Layer_1" clip-path="url(#clip0_0_25)">
<g id="Group">
<path id="Vector" d="M34.0073 19.68C33.3588 19.68 32.7344 19.632 32.11 19.56C31.5096 19.488 30.9572 19.344 30.5009 19.152C30.0446 18.96 29.6603 18.696 29.3961 18.336C29.1319 18 28.9878 17.544 28.9878 17.016V2.592H31.3414V7.92L31.4375 7.872C31.6056 7.8 31.7737 7.728 31.9178 7.68C32.3741 7.512 32.8305 7.392 33.3108 7.296C33.7671 7.2 34.1754 7.152 34.5116 7.152C36.3128 7.152 37.6578 7.68 38.5704 8.736C39.459 9.792 39.9153 11.304 39.9153 13.248C39.9153 15.192 39.7472 15.624 39.411 16.464C39.0747 17.304 38.6184 17.952 38.066 18.408C37.5137 18.864 36.8652 19.2 36.1687 19.392C35.4723 19.584 34.7518 19.68 34.0073 19.68ZM34.1273 9.144C33.7191 9.144 33.2387 9.192 32.7584 9.312C32.2541 9.432 31.7978 9.6 31.3895 9.84H31.3655V16.392C31.3655 16.728 31.5096 17.016 31.7737 17.184C32.0379 17.376 32.3741 17.496 32.7584 17.544C33.1427 17.592 33.5269 17.64 33.9112 17.64C34.8719 17.64 35.6164 17.448 36.1447 17.04C36.6731 16.656 37.0333 16.128 37.2255 15.48C37.4176 14.856 37.5137 14.112 37.5137 13.344C37.5137 12.576 37.3936 11.664 37.1534 11.064C36.9133 10.44 36.529 9.96 36.0487 9.648C35.5683 9.312 34.9199 9.144 34.1514 9.144H34.1273Z" fill="var(--fill-0, #3E3E3D)"/>
<path id="Vector_2" d="M46.3517 19.68C45.7273 19.68 45.1269 19.608 44.5745 19.512C43.9981 19.392 43.4938 19.2 43.0134 18.912C42.5571 18.624 42.1729 18.24 41.9087 17.76C41.6445 17.28 41.5004 16.656 41.5004 15.912C41.5004 15.168 41.6685 14.304 42.0288 13.752C42.365 13.2 42.8693 12.768 43.5178 12.48C44.1662 12.192 44.9347 12.048 45.8474 12.048C46.76 12.048 47.0002 12.096 47.4805 12.192C47.9608 12.288 48.3931 12.408 48.7774 12.576C48.9935 12.672 49.1857 12.768 49.3778 12.888L49.4979 12.96V11.688C49.4979 10.824 49.2337 10.176 48.7053 9.768C48.177 9.36 47.4325 9.168 46.4718 9.168C45.5111 9.168 45.0788 9.288 44.3583 9.504C43.6859 9.696 43.1335 9.984 42.6772 10.32V8.16C43.1095 7.872 43.7579 7.632 44.5745 7.464C45.4151 7.272 46.3037 7.2 47.2163 7.2C48.1289 7.2 48.1049 7.248 48.5612 7.32C49.0175 7.416 49.4258 7.536 49.8341 7.728C50.2184 7.896 50.5786 8.16 50.8908 8.448C51.203 8.76 51.4432 9.12 51.6113 9.552C51.7794 9.984 51.8755 10.512 51.8755 11.112V16.872C51.8755 17.64 51.6353 18.216 51.179 18.624C50.6987 19.032 50.0502 19.32 49.2337 19.464C48.4171 19.608 47.4565 19.68 46.4238 19.68H46.3517ZM46.712 13.776C45.7993 13.776 45.0788 13.944 44.5985 14.28C44.1182 14.616 43.854 15.12 43.854 15.768C43.854 16.416 43.9981 16.68 44.2863 16.992C44.5745 17.304 44.9107 17.52 45.343 17.664C45.7513 17.808 46.2076 17.88 46.6399 17.88C47.5765 17.88 48.297 17.808 48.7534 17.688C49.2337 17.544 49.4738 17.232 49.4738 16.728V14.352H49.4258C49.1857 14.232 48.9215 14.136 48.6573 14.064C48.0569 13.896 47.4084 13.8 46.712 13.8V13.776Z" fill="var(--fill-0, #3E3E3D)"/>
<path id="Vector_3" d="M69.5756 19.68V12.12C69.5756 11.808 69.5276 11.496 69.4555 11.208C69.3835 10.896 69.2394 10.608 69.0232 10.368C68.8071 10.104 68.5189 9.912 68.1346 9.768C67.7504 9.624 67.246 9.552 66.6216 9.552C65.9972 9.552 65.733 9.624 65.3007 9.744C64.9404 9.84 64.5802 10.008 64.244 10.224H64.1959C64.1959 10.248 64.1959 10.296 64.1959 10.296C64.316 10.752 64.364 11.256 64.364 11.808V19.704H61.9864V12.144C61.9864 11.832 61.9384 11.52 61.8663 11.232C61.7943 10.92 61.6502 10.632 61.434 10.392C61.2179 10.128 60.9297 9.936 60.5454 9.792C60.1612 9.648 59.6568 9.576 59.0324 9.576C58.408 9.576 58.1678 9.624 57.7115 9.696C57.2792 9.768 56.8469 9.888 56.4626 10.032H56.4146V19.728H54.037V8.784C54.3732 8.616 54.7575 8.472 55.1657 8.304C55.598 8.16 56.0784 8.016 56.5587 7.92C57.063 7.8 57.5674 7.728 58.0717 7.656C58.5761 7.584 59.0804 7.56 59.5608 7.56C60.6895 7.56 61.6021 7.704 62.2986 8.016C62.5628 8.136 62.803 8.28 63.0191 8.448H63.0431C63.0431 8.472 63.1392 8.448 63.1392 8.448C63.1632 8.448 63.1872 8.424 63.2353 8.4C63.8357 8.136 64.4841 7.92 65.1326 7.776C65.781 7.632 66.4294 7.56 67.0779 7.56C68.2067 7.56 69.1193 7.704 69.8158 8.016C70.5122 8.328 71.0166 8.784 71.3528 9.432C71.6891 10.056 71.8572 10.872 71.8572 11.832V19.728H69.4795L69.5756 19.68Z" fill="var(--fill-0, #3E3E3D)"/>
<path id="Vector_4" d="M79.4704 19.68C78.8219 19.68 78.1975 19.632 77.5731 19.56C76.9727 19.488 76.4203 19.344 75.964 19.152C75.5077 18.96 75.1234 18.696 74.8592 18.336C74.595 18 74.4509 17.544 74.4509 17.016V2.592H76.8045V7.92L76.9006 7.872C77.0687 7.8 77.2368 7.728 77.3809 7.68C77.8373 7.512 78.2936 7.392 78.7739 7.296C79.2302 7.2 79.6385 7.152 79.9747 7.152C81.7759 7.152 83.1209 7.68 84.0335 8.736C84.9221 9.792 85.3784 11.304 85.3784 13.248C85.3784 15.192 85.2103 15.624 84.8741 16.464C84.5378 17.304 84.0815 17.952 83.5291 18.408C82.9768 18.864 82.3283 19.2 81.6318 19.392C80.9354 19.584 80.2149 19.68 79.4704 19.68ZM79.5905 9.144C79.1822 9.144 78.7018 9.192 78.2215 9.312C77.7172 9.432 77.2609 9.6 76.8526 9.84H76.8045V16.392C76.8045 16.728 76.9486 17.016 77.2128 17.184C77.477 17.376 77.8132 17.496 78.1975 17.544C78.5818 17.592 78.966 17.64 79.3503 17.64C80.3109 17.64 81.0555 17.448 81.5838 17.04C82.1122 16.656 82.4724 16.128 82.6646 15.48C82.8567 14.856 82.9528 14.112 82.9528 13.344C82.9528 12.576 82.8327 11.664 82.5925 11.064C82.3523 10.44 81.9681 9.96 81.4877 9.648C81.0074 9.312 80.359 9.144 79.5905 9.144Z" fill="var(--fill-0, #3E3E3D)"/>
<path id="Vector_5" d="M93.7361 19.68C92.8955 19.68 92.103 19.536 91.3345 19.224C90.59 18.912 89.9175 18.504 89.3651 17.976C88.8128 17.448 88.3564 16.8 88.0202 16.032C87.684 15.264 87.5159 14.448 87.5159 13.56C87.5159 12.672 87.684 11.856 88.0202 11.088C88.3564 10.32 88.7887 9.672 89.3651 9.144C89.9175 8.616 90.59 8.184 91.3345 7.896C92.079 7.584 92.8955 7.44 93.7361 7.44C94.5767 7.44 95.3692 7.584 96.1378 7.896C96.8823 8.208 97.5547 8.616 98.1311 9.144C98.6835 9.672 99.1398 10.32 99.4761 11.088C99.8123 11.856 99.9804 12.696 99.9804 13.56C99.9804 14.424 99.8843 14.928 99.6682 15.576C99.452 16.2 99.1638 16.776 98.7796 17.28C98.3953 17.784 97.939 18.216 97.4347 18.576C96.9303 18.936 96.3539 19.224 95.7295 19.416C95.1051 19.608 94.4566 19.704 93.7842 19.704L93.7361 19.68ZM93.7361 9.504C92.6554 9.504 91.7187 9.888 90.9502 10.656C90.2057 11.424 89.8214 12.384 89.8214 13.536C89.8214 14.688 89.9896 14.976 90.3498 15.6C90.686 16.224 91.1664 16.704 91.7668 17.04C92.3672 17.376 93.0156 17.568 93.7361 17.568C94.4566 17.568 95.1051 17.4 95.7055 17.04C96.3059 16.704 96.7862 16.2 97.1224 15.6C97.4587 14.976 97.6508 14.304 97.6508 13.536C97.6508 12.408 97.2665 11.424 96.522 10.656C95.7775 9.888 94.8409 9.504 93.7361 9.504Z" fill="var(--fill-0, #3E3E3D)"/>
<path id="Vector_6" d="M108.362 19.68C107.522 19.68 106.729 19.536 105.96 19.224C105.216 18.912 104.544 18.504 103.991 17.976C103.439 17.448 102.982 16.8 102.646 16.032C102.31 15.264 102.142 14.448 102.142 13.56C102.142 12.672 102.31 11.856 102.646 11.088C102.982 10.32 103.415 9.672 103.991 9.144C104.544 8.616 105.216 8.184 105.96 7.896C106.705 7.584 107.522 7.44 108.362 7.44C109.203 7.44 109.995 7.584 110.764 7.896C111.508 8.208 112.181 8.616 112.757 9.144C113.31 9.672 113.766 10.32 114.102 11.088C114.438 11.856 114.606 12.696 114.606 13.56C114.606 14.424 114.51 14.928 114.294 15.576C114.078 16.2 113.79 16.776 113.406 17.28C113.021 17.784 112.565 18.216 112.061 18.576C111.556 18.936 110.98 19.224 110.355 19.416C109.731 19.608 109.083 19.704 108.41 19.704L108.362 19.68ZM108.362 9.504C107.281 9.504 106.345 9.888 105.576 10.656C104.832 11.424 104.447 12.384 104.447 13.536C104.447 14.688 104.616 14.976 104.976 15.6C105.312 16.224 105.792 16.704 106.393 17.04C106.993 17.376 107.642 17.568 108.362 17.568C109.083 17.568 109.731 17.4 110.331 17.04C110.932 16.704 111.412 16.2 111.748 15.6C112.085 14.976 112.277 14.304 112.277 13.536C112.277 12.408 111.893 11.424 111.148 10.656C110.404 9.888 109.467 9.504 108.362 9.504Z" fill="var(--fill-0, #3E3E3D)"/>
</g>
<path id="Vector_7" d="M116.792 24V9.864C116.792 9.408 116.936 9 117.224 8.688C117.512 8.376 117.921 8.112 118.401 7.92C118.905 7.728 119.434 7.584 120.034 7.512C120.635 7.416 121.235 7.392 121.811 7.392C122.844 7.392 123.805 7.584 124.645 7.968C125.486 8.352 126.158 9 126.687 9.912C127.191 10.824 127.455 12.096 127.455 13.68C127.455 15.264 127.239 15.936 126.831 16.824C126.422 17.712 125.798 18.384 125.006 18.888C124.213 19.368 123.228 19.608 122.1 19.608C120.971 19.608 121.451 19.584 121.019 19.512C120.586 19.44 120.154 19.344 119.722 19.176C119.554 19.104 119.362 19.056 119.218 18.96C119.218 18.96 119.218 18.96 119.194 18.96C119.17 18.96 119.17 18.96 119.146 18.96C119.146 18.96 119.121 19.008 119.121 19.032V23.976H116.84L116.792 24ZM121.763 9.384C120.971 9.384 120.346 9.456 119.842 9.624C119.338 9.792 119.073 10.056 119.073 10.416V16.944C119.073 16.968 119.073 16.992 119.121 17.016C119.53 17.232 119.962 17.4 120.37 17.52C120.803 17.64 121.211 17.688 121.643 17.688C122.412 17.688 123.036 17.52 123.565 17.208C124.069 16.896 124.453 16.416 124.717 15.816C124.982 15.216 125.102 14.472 125.102 13.632C125.102 12.792 125.006 12.12 124.837 11.472C124.645 10.824 124.309 10.296 123.829 9.912C123.348 9.528 122.652 9.336 121.763 9.336V9.384Z" fill="var(--fill-0, #3E3E3D)"/>
<path id="Vector_8" d="M133.892 19.632C133.291 19.632 132.691 19.584 132.138 19.464C131.586 19.344 131.082 19.152 130.625 18.864C130.169 18.6 129.809 18.216 129.545 17.736C129.28 17.256 129.136 16.656 129.136 15.936C129.136 15.216 129.304 14.376 129.641 13.824C129.977 13.272 130.457 12.864 131.082 12.576C131.706 12.312 132.475 12.168 133.339 12.168C134.204 12.168 134.468 12.216 134.924 12.312C135.405 12.408 135.813 12.528 136.197 12.696C136.413 12.792 136.605 12.888 136.798 12.984C136.798 12.984 136.822 12.984 136.846 12.984C136.87 12.984 136.87 12.984 136.87 12.984C136.87 12.984 136.918 12.936 136.918 12.912V11.808C136.918 10.968 136.653 10.32 136.149 9.936C135.645 9.552 134.9 9.336 133.964 9.336C133.027 9.336 132.619 9.432 131.898 9.648C131.25 9.84 130.697 10.104 130.265 10.44V8.328C130.697 8.04 131.322 7.824 132.114 7.656C132.931 7.488 133.82 7.392 134.684 7.392C135.549 7.392 135.549 7.44 136.005 7.512C136.437 7.608 136.87 7.728 137.254 7.896C137.638 8.064 137.974 8.304 138.287 8.616C138.575 8.904 138.815 9.288 138.983 9.696C139.151 10.128 139.247 10.632 139.247 11.208V16.824C139.247 17.568 139.007 18.144 138.551 18.528C138.094 18.936 137.446 19.2 136.653 19.344C135.837 19.488 134.924 19.56 133.892 19.56V19.632ZM134.252 13.872C133.339 13.872 132.643 14.04 132.186 14.352C131.706 14.688 131.466 15.168 131.466 15.816C131.466 16.464 131.61 16.704 131.874 16.992C132.138 17.28 132.499 17.52 132.907 17.64C133.315 17.784 133.748 17.832 134.18 17.832C135.116 17.832 135.789 17.76 136.245 17.64C136.726 17.496 136.966 17.184 136.966 16.704V14.424C136.966 14.4 136.966 14.376 136.918 14.352C136.702 14.256 136.437 14.16 136.149 14.088C135.573 13.92 134.924 13.848 134.252 13.848V13.872Z" fill="var(--fill-0, #3E3E3D)"/>
<path id="Vector_9" d="M143.186 23.832C142.898 23.832 142.61 23.808 142.345 23.76C142.105 23.712 141.889 23.64 141.697 23.592V21.624C141.865 21.672 142.009 21.72 142.177 21.768C142.369 21.816 142.586 21.84 142.802 21.84C143.282 21.84 143.69 21.72 144.027 21.456C144.339 21.192 144.627 20.832 144.843 20.352C144.987 20.064 145.107 19.704 145.203 19.344C145.203 19.344 145.203 19.32 145.203 19.296L140.448 7.704H143.09L146.284 16.44C146.284 16.464 146.332 16.488 146.356 16.488C146.38 16.488 146.404 16.488 146.428 16.44L149.598 7.704H152L147.197 20.088C146.812 21.072 146.38 21.864 145.948 22.392C145.492 22.944 145.035 23.328 144.579 23.52C144.123 23.736 143.642 23.832 143.21 23.832H143.186Z" fill="var(--fill-0, #3E3E3D)"/>
<g id="Group_2">
<path id="Vector_10" d="M16.1871 1.392C17.1717 1.392 18.0844 1.776 18.7808 2.472C19.4773 3.168 19.8616 4.08 19.8376 5.064C19.8376 7.08 18.1804 8.736 16.1631 8.736C14.1457 8.736 12.4885 7.08 12.4885 5.064C12.4885 3 14.1217 1.392 16.1631 1.392M16.1871 0.024C13.3772 0.024 11.1436 2.256 11.1436 5.064C11.1436 7.848 13.3772 10.08 16.1871 10.08C18.949 10.08 21.2065 7.848 21.2305 5.064C21.2305 2.28 18.997 0.024 16.2111 0.024H16.1871Z" fill="var(--fill-0, #20A567)"/>
<path id="Vector_11" d="M8.16559 21.216H1.92131C0.864591 21.216 0 20.352 0 19.296V11.424C0 11.256 0.120082 11.136 0.288197 11.136H8.16559C9.22231 11.136 10.0869 12 10.0869 13.056V19.272C10.0869 20.328 9.22231 21.192 8.16559 21.192V21.216Z" fill="var(--fill-0, #2E68AE)"/>
<path id="Vector_12" d="M8.16559 10.08H0.288197C0.120082 10.08 0 9.96 0 9.792V1.92C0 0.864 0.864592 0 1.92131 0H8.14157C9.19829 0 10.0629 0.864 10.0629 1.92V8.136C10.0629 9.192 9.19829 10.056 8.14157 10.056L8.16559 10.08Z" fill="var(--fill-0, #2E68AE)"/>
<path id="Vector_13" d="M19.3092 21.24H13.089C12.0322 21.24 11.1676 20.376 11.1676 19.32V13.104C11.1676 12.048 12.0322 11.184 13.089 11.184H20.9663C21.1345 11.184 21.2545 11.304 21.2545 11.472V19.344C21.2545 20.4 20.39 21.264 19.3332 21.264L19.3092 21.24Z" fill="var(--fill-0, #2E68AE)"/>
</g>
</g>
<defs>
<clipPath id="clip0_0_25">
<rect width="152" height="24" fill="white"/>
</clipPath>
</defs>
</svg>
