<svg preserveAspectRatio="none" width="100%" height="100%" overflow="visible" style="display: block;" viewBox="0 0 64.0001 64.0001" fill="none" xmlns="http://www.w3.org/2000/svg">
<g id="SUCCESS">
<path id="Vector" d="M32.0001 8.83651e-05C14.3276 8.83651e-05 5.94351e-05 14.3226 5.94351e-05 32.0001C5.94351e-05 49.6776 14.3276 64.0001 32.0001 64.0001C49.6726 64.0001 64.0001 49.6688 64.0001 32.0001C64.0001 14.3313 49.6726 8.83651e-05 32.0001 8.83651e-05Z" fill="var(--fill-0, #2AD352)"/>
<path id="Vector_2" d="M2.97176e-05 32C-0.00719394 37.2894 1.30262 42.4972 3.81128 47.1538C7.00738 48.0922 10.3215 48.5674 13.6525 48.565C32.89 48.565 48.485 32.97 48.485 13.7325C48.4879 10.3487 47.9977 6.98254 47.03 3.74004C42.404 1.27595 37.2414 -0.00868418 32 4.41826e-05C14.3275 4.41826e-05 2.97176e-05 14.3225 2.97176e-05 32Z" fill="var(--fill-0, #74DA7F)"/>
<path id="Vector_3" d="M50.2501 26.6976L31.0163 46.8963C30.4921 47.4462 29.8624 47.8846 29.1648 48.1853C28.4671 48.486 27.716 48.6428 26.9563 48.6463H26.9313C26.1759 48.6465 25.4281 48.495 24.7324 48.2006C24.0366 47.9062 23.4072 47.475 22.8813 46.9326L12.6751 36.4201C12.1477 35.8907 11.7308 35.2619 11.4484 34.5702C11.166 33.8784 11.0238 33.1374 11.0301 32.3902C11.0364 31.6431 11.1911 30.9046 11.485 30.2177C11.779 29.5308 12.2065 28.9091 12.7427 28.3887C13.2789 27.8683 13.9131 27.4596 14.6085 27.1863C15.3039 26.913 16.0467 26.7805 16.7937 26.7966C17.5407 26.8126 18.2771 26.9769 18.9602 27.2799C19.6432 27.5828 20.2592 28.0184 20.7726 28.5613L26.8913 34.8638L42.0776 18.9163C42.5863 18.3708 43.1981 17.9316 43.8777 17.6241C44.5572 17.3166 45.291 17.1468 46.0365 17.1247C46.7821 17.1026 47.5247 17.2285 48.2213 17.4951C48.9179 17.7618 49.5547 18.1639 50.0949 18.6782C50.6351 19.1926 51.0679 19.8089 51.3684 20.4916C51.6689 21.1743 51.8311 21.9098 51.8455 22.6555C51.8599 23.4013 51.7263 24.1425 51.4525 24.8363C51.1786 25.5301 50.77 26.1627 50.2501 26.6976Z" fill="var(--fill-0, white)"/>
</g>
</svg>
